<svg width="1200" height="1200" xmlns="http://www.w3.org/2000/svg" xmlns:xlink="http://www.w3.org/1999/xlink" version="1.1"><g transform="scale(13.379629069528288) translate(-5.155306922064877, -5.153388129340277)">                        <g fill="#fff5a5"><g xmlns="http://www.w3.org/2000/svg" transform="translate(0,-952.36218)"><path style="baseline-shift: baseline; block-progression: tb; color: ; direction: ltr; text-indent: 0; enable-background: accumulate; text-transform: none" d="m64.578,962c-7.7369,11.119-27.444,40.3-33.188,49.313h15.094a0.85009,0.85009,0,0,1,0.78125,1.2187l-15.219,30.188c1.1757-1.4822,1.4884-1.8237,3-3.75,4.0388-5.1468,9.0866-11.641,14.156-18.125,5.0696-6.4837,10.174-12.946,14.25-18.062,3.4747-4.3614,5.5759-6.8883,7.0312-8.5-7.9716,0.0402-7.61,0.25-17.719,0.25a0.85009,0.85009,0,0,1,-0.8125,-1.1562l12.625-31.375zm-14.594,2.875c-20.701,0-37.469,16.831-37.469,37.531,0,14.79,8.5632,27.563,21,33.656l0.75-1.5c-11.888-5.807-20.062-18.013-20.062-32.156,0-19.782,15.999-35.813,35.781-35.813,2.9663,0,5.8374,0.35156,8.5938,1.0312,0.31231-0.45792,0.69821-1.0582,1-1.5-3.0707-0.81397-6.2692-1.25-9.5938-1.25zm14.156,2.7812-0.625,1.5938c13.068,5.3406,22.281,18.166,22.281,33.156,0,19.782-16.031,35.75-35.812,35.75-3.779,0-7.4269-0.5746-10.844-1.6562-0.34048,0.4354-0.76349,0.9843-1.0938,1.4062,3.7473,1.257,7.7655,1.9688,11.938,1.9688,20.701,0,37.5-16.768,37.5-37.469,0-15.692-9.6504-29.155-23.344-34.75z"/></g></g>        </g></svg>